<svg height="128" width="128" xmlns="http://www.w3.org/2000/svg" xmlns:xlink="http://www.w3.org/1999/xlink"><linearGradient id="a" gradientUnits="userSpaceOnUse" x1="63.9999699027" x2="63.9999699027" y1="15.13693997297" y2="118.8667024"><stop offset="0" stop-color="#fff"/><stop offset=".06316455" stop-color="#fff" stop-opacity=".235294"/><stop offset=".95056331" stop-color="#fff" stop-opacity=".156863"/><stop offset="1" stop-color="#fff" stop-opacity=".392157"/></linearGradient><radialGradient id="b" cx="7.118353" cy="9.957108" gradientTransform="matrix(0 24.139622 -29.635745 0 361.28116 -204.72681)" gradientUnits="userSpaceOnUse" r="8.933064"><stop offset="0" stop-color="#404648"/><stop offset="1" stop-color="#0c1011"/></radialGradient><radialGradient id="c" cx="4.992979" cy="43.5" gradientTransform="matrix(2.003784 0 0 1.4 27.98813 -17.4)" gradientUnits="userSpaceOnUse" r="2.5" xlink:href="#d"/><linearGradient id="d"><stop offset="0" stop-color="#181818"/><stop offset="1" stop-color="#181818" stop-opacity="0"/></linearGradient><radialGradient id="e" cx="4.992979" cy="43.5" gradientTransform="matrix(2.003784 0 0 1.4 -20.01187 -104.4)" gradientUnits="userSpaceOnUse" r="2.5" xlink:href="#d"/><linearGradient id="f" gradientUnits="userSpaceOnUse" x1="25.058096" x2="25.058096" y1="47.027729" y2="39.999443"><stop offset="0" stop-color="#181818" stop-opacity="0"/><stop offset=".5" stop-color="#181818"/><stop offset="1" stop-color="#181818" stop-opacity="0"/></linearGradient><radialGradient id="g" cx="-4.028777" cy="93.467628" gradientTransform="matrix(1.5563924 0 0 .16978827 70.270355 102.1321)" gradientUnits="userSpaceOnUse" r="35.338131"><stop offset="0"/><stop offset="1" stop-opacity="0"/></radialGradient><path d="m119 118.00181a55 6 0 0 1 -109.9999982 0 55 6 0 1 1 109.9999982 0z" fill="url(#g)" opacity=".2"/><g opacity=".4" transform="matrix(2.8421052421 0 0 .71428566143 -4.21053321053 87.43038409176)"><path d="m38 40h5v7h-5z" fill="url(#c)"/><path d="m-10-47h5v7h-5z" fill="url(#e)" transform="scale(-1)"/><path d="m10 40h28v7.000001h-28z" fill="url(#f)"/></g><rect fill="url(#b)" height="103" opacity=".9" rx="6.054541" width="103" x="12.499988" y="15.501808"/><rect fill="none" height="101" opacity=".3" rx="5" stroke="url(#a)" stroke-linecap="round" stroke-linejoin="round" width="101" x="13.499988" y="16.501808"/><rect fill="none" height="103" opacity=".7" rx="6.054541" stroke="#000" stroke-linecap="round" stroke-linejoin="round" width="103" x="12.499988" y="15.501808"/><path d="m35 32.984375a1.0162329 1.0162329 0 0 0 -1.015625 1.015625v3.488281c-1.174604.326369-2.253924.78575-3.134766 1.490235a1.0162329 1.0162329 0 0 0 -.002.002c-1.691656 1.363293-2.578125 3.356479-2.578125 5.662109 0 1.234968.255817 2.3743.794922 3.361328.511035.935636 1.200047 1.759115 2.042969 2.453125.865783.712833 2.057154 1.382462 3.603516 2.074219 1.585069.716879 2.644672 1.255726 3.041015 1.509766a1.0162329 1.0162329 0 0 0 .0098.0059c.451644.283326.749888.557412.916015.78125a1.0162329 1.0162329 0 0 0 .0098.01172c.138108.180612.193359.337793.193359.597656 0 .564965-.11734.767502-.476562 1.009766a1.0162329 1.0162329 0 0 0 -.0078.0039c-.358454.246224-1.024657.445312-2.042968.445312-.848137 0-1.819604-.131085-2.908204-.402343h-.002c-1.06455-.268129-2.422653-.744699-4.046875-1.433594a1.0162329 1.0162329 0 0 0 -1.412109.935547v4.599609a1.0162329 1.0162329 0 0 0 .587891.921875c1.629977.757909 3.464625 1.149498 5.412109 1.330078v3.152344a1.0162329 1.0162329 0 0 0 1.015638 1.015542h4a1.0162329 1.0162329 0 0 0 1.015625-1.015625v-3.535156c1.196767-.331534 2.295808-.787077 3.197266-1.47461 1.826402-1.38481 2.802734-3.428127 2.802734-5.792968 0-1.711301-.500279-3.25937-1.503906-4.490235-1.028576-1.272277-2.719472-2.353724-5.085938-3.429687-1.714607-.778557-2.827327-1.338037-3.167969-1.552735-.375463-.254146-.606017-.486901-.714843-.648437-.0994-.155932-.154297-.32405-.154297-.59375 0-.449015.101123-.65966.421875-.925781.287571-.238593.783392-.421875 1.617187-.421875.744491 0 1.505972.09207 2.285157.277343a1.0162329 1.0162329 0 0 0 .002 0c.78887.185137 1.838046.527468 3.11914 1.027344a1.0162329 1.0162329 0 0 0 1.300782-.541015l1.679687-3.847657a1.0162329 1.0162329 0 0 0 -.544922-1.345703c-1.305448-.538397-2.566437-.958739-3.785156-1.259766h-.002c-.477361-.118942-.975293-.169461-1.466797-.240234v-3.205078a1.0162329 1.0162329 0 0 0 -1.015625-1.015625zm18 35a1.0162329 1.0162329 0 0 0 -1.015625 1.015625v4a1.0162329 1.0162329 0 0 0 1.015625 1.015625h21a1.0162329 1.0162329 0 0 0 1.015625-1.015625v-4a1.0162329 1.0162329 0 0 0 -1.015625-1.015625z" opacity=".15"/><path d="m35 34v4.234375c-1.39916.272798-2.57253.782835-3.515625 1.537109-1.466247 1.181637-2.199219 2.805891-2.199219 4.871094 0 1.096474.224166 2.055306.671875 2.875s1.046963 1.536865 1.796875 2.154297c.749913.617432 1.875175 1.262935 3.375 1.933594 1.60056.723885 2.65701 1.250071 3.171875 1.580078.526058.330007.924734.675166 1.19336 1.037109.268625.351298.402343.757093.402343 1.214844 0 .819694-.308228 1.436393-.923828 1.851562-.604407.41517-1.477482.623047-2.61914.623047-.951382 0-2.0034-.144215-3.15625-.43164-1.141658-.287425-2.540743-.78178-4.197266-1.484375v4.599609c1.763638.820058 3.773202 1.25914 6 1.361328v4.042969h4v-4.283203c1.430421-.289181 2.632927-.798992 3.599609-1.537109 1.60056-1.213573 2.400391-2.874638 2.400391-4.982422 0-1.522289-.424744-2.80441-1.275391-3.847657-.850647-1.053892-2.424241-2.103237-4.71875-3.146484-1.734872-.787758-2.836546-1.330836-3.30664-1.628906-.458902-.308716-.795151-.622045-1.007813-.941407-.212662-.330006-.318359-.71393-.318359-1.15039 0-.702595.263004-1.270571.789062-1.707031.526058-.436461 1.280666-.65625 2.265625-.65625.828262 0 1.668885.102425 2.519532.304687.861839.202262 1.94631.557381 3.255859 1.06836l1.679687-3.847657c-1.264777-.521623-2.480487-.925465-3.644531-1.21289-.721164-.179799-1.468939-.297909-2.238281-.365235v-4.066406zm18 35v4h21v-4z" opacity=".3"/><path d="m35 33.000002v4.234375c-1.39916.272798-2.57253.782835-3.515625 1.537109-1.466247 1.181637-2.199219 2.805891-2.199219 4.871094 0 1.096474.224166 2.055306.671875 2.875s1.046963 1.536865 1.796875 2.154297c.749913.617432 1.875175 1.262935 3.375 1.933594 1.60056.723885 2.65701 1.250071 3.171875 1.580078.526058.330007.924734.675166 1.19336 1.037109.268625.351298.402343.757093.402343 1.214844 0 .819694-.308228 1.436393-.923828 1.851562-.604407.41517-1.477482.623047-2.61914.623047-.951382 0-2.0034-.144215-3.15625-.43164-1.141658-.287425-2.540743-.78178-4.197266-1.484375v4.599609c1.763638.820058 3.773202 1.25914 6 1.361328v4.042969h4v-4.283203c1.430421-.289181 2.632927-.798992 3.599609-1.537109 1.60056-1.213573 2.400391-2.874638 2.400391-4.982422 0-1.522289-.424744-2.80441-1.275391-3.847657-.850647-1.053892-2.424241-2.103237-4.71875-3.146484-1.734872-.787758-2.836546-1.330836-3.30664-1.628906-.458902-.308716-.795151-.622045-1.007813-.941407-.212662-.330006-.318359-.71393-.318359-1.15039 0-.702595.263004-1.270571.789062-1.707031.526058-.436461 1.280666-.65625 2.265625-.65625.828262 0 1.668885.102425 2.519532.304687.861839.202262 1.94631.557381 3.255859 1.06836l1.679687-3.847657c-1.264777-.521623-2.480487-.925465-3.644531-1.21289-.721164-.179799-1.468939-.297909-2.238281-.365235v-4.066406zm18 35v4h21v-4z" fill="#fff"/></svg>