<svg fill="none" height="24" viewBox="0 0 24 24" width="24" xmlns="http://www.w3.org/2000/svg"><path clip-rule="evenodd" d="m2 7c0-2.76142 2.23858-5 5-5h10c2.7614 0 5 2.23858 5 5v10c0 2.7614-2.2386 5-5 5h-10c-2.76142 0-5-2.2386-5-5zm5-3c-1.65685 0-3 1.34315-3 3v10c0 1.6569 1.34315 3 3 3h10c1.6569 0 3-1.3431 3-3v-10c0-1.65685-1.3431-3-3-3zm0 13c0-.5523.44772-1 1-1h8c.5523 0 1 .4477 1 1s-.4477 1-1 1h-8c-.55228 0-1-.4477-1-1zm1.70709-9.70712c-.39053-.39052-1.02369-.3905-1.41421.00003s-.3905 1.02369.00003 1.41421l2.29297 2.29288-2.29297 2.2929c-.39053.3905-.39055 1.0237-.00003 1.4142s1.02368.3905 1.41421 0l3.00011-3c.1876-.1875.2929-.4419.2929-.7071s-.1053-.5196-.2929-.7071z" fill="#000" fill-rule="evenodd"/></svg>